<svg width="100" height="100" viewBox="0 0 100 100" fill="none" xmlns="http://www.w3.org/2000/svg">
<rect width="100" height="100" rx="8" fill="#22C55E"/>
<path d="M43.68 33.71C44.46 34.646 45.006 35.4 45.318 35.972C45.63 36.544 45.786 37.09 45.786 37.61C45.786 38.234 45.37 38.962 44.538 39.794C43.758 40.626 42.978 41.042 42.198 41.042C41.158 41.042 40.326 40.886 39.702 40.574C39.078 40.262 38.558 39.768 38.142 39.092C37.31 37.844 36.296 36.778 35.1 35.894C33.904 34.958 32.032 34.49 29.484 34.49C27.3 34.49 24.804 34.984 21.996 35.972C19.24 36.96 17.264 38.182 16.068 39.638C15.028 40.938 14.118 42.914 13.338 45.566C12.61 48.218 12.246 50.792 12.246 53.288C12.246 56.304 12.896 59.086 14.196 61.634C15.548 64.13 17.472 66.132 19.968 67.64C22.516 69.148 25.558 69.902 29.094 69.902C31.018 69.902 32.994 69.538 35.022 68.81C37.102 68.03 38.896 66.782 40.404 65.066H40.326C41.262 64.078 42.432 63.584 43.836 63.584C44.668 63.584 45.448 63.948 46.176 64.676C46.956 65.404 47.346 66.132 47.346 66.86C47.346 67.64 47.216 68.342 46.956 68.966C46.748 69.538 46.332 70.188 45.708 70.916C43.576 73.308 41.054 74.946 38.142 75.83C35.23 76.714 31.746 77.156 27.69 77.156C24.102 77.156 20.462 76.298 16.77 74.582C13.13 72.866 10.322 70.786 8.346 68.342C7.306 66.834 6.292 64.676 5.304 61.868C4.368 59.008 3.9 56.694 3.9 54.926C3.9 50.402 4.576 46.112 5.928 42.056C7.332 37.948 9.412 34.672 12.168 32.228C13.988 30.564 16.614 29.316 20.046 28.484C23.478 27.652 26.624 27.236 29.484 27.236C32.968 27.236 35.698 27.73 37.674 28.718C39.702 29.654 41.704 31.318 43.68 33.71ZM96.2971 61.244C96.2971 64.156 95.1791 66.938 92.9431 69.59C90.7591 72.19 87.9771 74.244 84.5971 75.752C83.1411 76.22 81.2951 76.61 79.0591 76.922C76.8231 77.182 74.5611 77.338 72.2731 77.39C67.8011 77.39 63.6411 76.766 59.7931 75.518C59.1171 75.362 58.3371 74.92 57.4531 74.192C56.5691 73.464 56.1531 72.502 56.2051 71.306V68.654C56.2051 65.742 56.1271 62.934 55.9711 60.23C55.8671 56.694 55.8151 53.99 55.8151 52.118L55.7371 43.304C55.7371 40.184 55.8411 37.038 56.0491 33.866C56.1011 32.254 56.6991 30.902 57.8431 29.81C59.0391 28.666 60.5211 27.964 62.2891 27.704C62.9651 27.652 64.1871 27.626 65.9551 27.626L73.4431 27.704C77.0311 27.704 80.2291 28.172 83.0371 29.108C85.8451 30.044 88.2631 31.552 90.2911 33.632C90.9671 34.412 91.5131 35.452 91.9291 36.752C92.3451 38 92.5531 39.222 92.5531 40.418C92.3971 44.63 89.9791 48.062 85.2991 50.714C89.0431 51.182 91.7991 52.352 93.5671 54.224C95.3871 56.096 96.2971 58.436 96.2971 61.244ZM66.8131 48.842C67.3331 48.79 68.1651 48.764 69.3091 48.764H72.8191C74.3791 48.764 75.4711 48.712 76.0951 48.608C81.3991 47.412 84.0511 45.306 84.0511 42.29C84.0511 41.51 83.9211 40.678 83.6611 39.794C83.4531 38.91 83.1671 38.286 82.8031 37.922C81.4511 36.622 80.1771 35.79 78.9811 35.426C77.7851 35.01 76.0171 34.802 73.6771 34.802C69.1531 34.802 65.9031 35.036 63.9271 35.504L64.0051 48.92L66.8131 48.842ZM70.4011 70.838C75.8091 70.838 80.0471 70.162 83.1151 68.81C86.2351 67.458 87.7951 64.806 87.7951 60.854C87.7951 59.294 86.6511 58.02 84.3631 57.032C82.0751 55.992 79.5791 55.472 76.8751 55.472C73.5471 55.472 71.2071 55.55 69.8551 55.706C68.7111 55.81 67.9311 55.862 67.5151 55.862C66.7351 55.862 66.1891 55.836 65.8771 55.784C65.6171 55.784 65.3051 55.784 64.9411 55.784C64.6291 55.732 64.2911 55.732 63.9271 55.784L64.0051 58.358C64.0571 58.982 64.1351 60.698 64.2391 63.506C64.3951 66.262 64.4211 68.212 64.3171 69.356C65.5131 69.876 66.5531 70.266 67.4371 70.526C68.3211 70.734 69.3091 70.838 70.4011 70.838Z" fill="white"/>
</svg>
